#!OML:ASF E:\motion texture\Top Level 1\Subject 1\Session 1\male.ASF
:FULLY-SPECIFIED
:DEGREES
386
root -20.4027 17.7581 3.17116 487.489 -81.9798 -479.411
lowerback -1.94114 0.581487 6.56318
upperback -2.42358 0.627707 3.589
thorax -1.37768 0.188955 0.027196
lowerneck -13.6491 -4.68557 -6.01714
upperneck 16.1975 -6.57184 6.95175
head 7.66951 -2.92415 2.55825
rclavicle 3.8266e-015 5.68524e-014
rhumerus -43.5423 -30.1602 -55.373
rradius 14.154
rwrist 38.3809
rhand -4.31379 -25.2987
rfingers 7.12502
rthumb 21.4526 -54.1309
lclavicle 3.8266e-015 5.68524e-014
lhumerus -57.537 38.5359 49.3408
lradius 13.6149
lwrist -68.6071
lhand 2.69865 17.1615
lfingers 7.12502
lthumb 28.1726 45.0645
rfemur 0.139683 2.11335 27.4136
rtibia 35.3835
rfoot -7.05594 -5.04235
rtoes -12.1709
lfemur -28.7517 -1.50478 -10.3716
ltibia 23.8931
lfoot -1.60033 5.67584
ltoes -1.49696
387
root -20.584 17.7646 3.19293 488.465 -82.2405 -480.603
lowerback -1.77337 0.529157 6.28119
upperback -2.30261 0.576092 3.5078
thorax -1.3502 0.173042 0.0979176
lowerneck -13.7998 -4.70259 -6.04181
upperneck 16.1265 -6.55904 6.88478
head 7.6705 -2.92093 2.53904
rclavicle -5.86415e-015 7.55382e-015
rhumerus -46.9694 -32.8909 -51.2492
rradius 13.1393
rwrist 42.2021
rhand -2.12769 -25.3264
rfingers 7.12502
rthumb 23.5509 -53.9045
lclavicle -5.86415e-015 7.55382e-015
lhumerus -60.1209 38.3177 47.3332
lradius 13.4121
lwrist -69.6594
lhand 5.6001 16.3662
lfingers 7.12502
lthumb 30.9422 43.7787
rfemur -0.733985 1.66145 26.7548
rtibia 37.6968
rfoot -4.65394 -5.15115
rtoes -11.3419
lfemur -28.0664 -1.37699 -11.0089
ltibia 24.3346
lfoot -2.14383 5.27379
ltoes -0.74627
388
root -20.7633 17.7716 3.21492 490.092 -82.5224 -482.436
lowerback -1.61956 0.495874 5.93584
upperback -2.16657 0.54798 3.41248
thorax -1.29846 0.170448 0.189807
lowerneck -13.9578 -4.72527 -6.06833
upperneck 16.0111 -6.54988 6.821
head 7.65861 -2.91911 2.52062
rclavicle -9.61621e-015 -2.66371e-014
rhumerus -50.441 -34.8486 -47.3397
rradius 12.5377
rwrist 45.2767
rhand -0.116508 -25.6357
rfingers 7.12502
rthumb 25.4788 -53.9525
lclavicle -9.61621e-015 -2.66371e-014
lhumerus -62.1424 37.6654 46.2048
lradius 13.4162
lwrist -69.7136
lhand 8.31148 15.8429
lfingers 7.12502
lthumb 33.5231 42.7313
rfemur -1.71886 1.25834 26.0386
rtibia 40.0426
rfoot -1.87938 -5.37492
rtoes -10.2082
lfemur -27.2946 -1.27731 -11.7011
ltibia 24.5969
lfoot -2.71754 4.98465
ltoes -0.280192
389
root -20.9399 17.7786 3.23717 492.445 -82.8308 -484.984
lowerback -1.47583 0.476054 5.52197
upperback -2.01888 0.536621 3.29866
thorax -1.22874 0.177416 0.301198
lowerneck -14.1228 -4.75191 -6.09701
upperneck 15.862 -6.54339 6.76182
head 7.63729 -2.91816 2.50366
rclavicle -7.52897e-015 6.36111e-015
rhumerus -53.5784 -35.863 -44.1715
rradius 12.2711
rwrist 47.2854
rhand 1.63727 -26.1097
rfingers 7.12502
rthumb 27.1576 -54.1756
lclavicle -7.52897e-015 6.36111e-015
lhumerus -63.6877 36.7165 45.8253
lradius 13.5744
lwrist -68.9049
lhand 10.6679 15.57
lfingers 7.12502
lthumb 35.7595 41.9453
rfemur -2.78857 0.900234 25.2607
rtibia 42.3833
rfoot 1.13415 -5.64973
rtoes -8.75296
lfemur -26.457 -1.22354 -12.4633
ltibia 24.7115
lfoot -3.30225 4.82048
ltoes -0.0531694
390
root -21.1134 17.7853 3.25937 495.587 -83.1536 -488.302
lowerback -1.34678 0.465717 5.04674
upperback -1.87053 0.536629 3.1681
thorax -1.15024 0.190413 0.430048
lowerneck -14.258 -4.773 -6.14118
upperneck 15.6722 -6.52783 6.71896
head 7.5978 -2.91323 2.49623
rclavicle 2.78299e-015 1.98785e-015
rhumerus -56.1335 -35.9885 -42.0508
rradius 12.2531
rwrist 48.1547
rhand 3.14366 -26.6731
rfingers 7.12502
rthumb 28.5978 -54.5053
lclavicle 2.78299e-015 1.98785e-015
lhumerus -64.8999 35.6077 45.9726
lradius 13.8363
lwrist -67.36
lhand 12.6914 15.5511
lfingers 7.12502
lthumb 37.6744 41.4381
rfemur -3.93545 0.601348 24.4404
rtibia 44.7171
rfoot 4.25638 -5.95945
rtoes -6.72455
lfemur -25.5862 -1.2038 -13.293
ltibia 24.7101
lfoot -3.89393 4.76102
ltoes -0.0707217
391
root -21.2839 17.7919 3.28117 499.501 -83.491 -492.371
lowerback -1.23169 0.458853 4.51141
upperback -1.72916 0.540389 3.0214
thorax -1.07164 0.205121 0.576366
lowerneck -14.3528 -4.78741 -6.19297
upperneck 15.4532 -6.5034 6.68291
head 7.54155 -2.90503 2.49408
rclavicle -4.4975e-015 5.56597e-015
rhumerus -58.0726 -35.4277 -40.9749
rradius 12.4054
rwrist 48.0101
rhand 4.39139 -27.2161
rfingers 7.12502
rthumb 29.7893 -54.8414
lclavicle -4.4975e-015 5.56597e-015
lhumerus -65.9223 34.4507 46.4128
lradius 14.1761
lwrist -65.3164
lhand 14.4036 15.7172
lfingers 7.12502
lthumb 39.29 41.1535
rfemur -5.14544 0.341508 23.5843
rtibia 47.0298
rfoot 7.28144 -6.33488
rtoes -4.23182
lfemur -24.7049 -1.21228 -14.1903
ltibia 24.6143
lfoot -4.46053 4.75658
ltoes -0.205594
392
root -21.4513 17.7984 3.30243 504.021 -83.8224 -497.021
lowerback -1.1324 0.448498 3.94713
upperback -1.59712 0.5381 2.86726
thorax -0.994444 0.215963 0.731817
lowerneck -14.4055 -4.78888 -6.24794
upperneck 15.2184 -6.46274 6.64824
head 7.47182 -2.89025 2.49556
rclavicle 1.86361e-015 -1.11319e-014
rhumerus -59.5357 -34.4476 -40.6814
rradius 12.6441
rwrist 47.171
rhand 5.39111 -27.6459
rfingers 7.12502
rthumb 30.743 -55.096
lclavicle 1.86361e-015 -1.11319e-014
lhumerus -66.8894 33.3504 46.9024
lradius 14.5579
lwrist -63.0333
lhand 15.7542 15.9556
lfingers 7.12502
lthumb 40.5611 41.0099
rfemur -6.40667 0.0974899 22.7265
rtibia 49.3173
rfoot 9.98154 -6.84865
rtoes -1.68553
lfemur -23.8334 -1.2492 -15.1236
ltibia 24.4635
lfoot -5.00498 4.78903
ltoes -0.403415
393
root -21.616 17.8058 3.32245 508.789 -84.1314 -501.914
lowerback -1.03878 0.422582 3.39338
upperback -1.46795 0.513577 2.72044
thorax -0.917505 0.214354 0.889453
lowerneck -14.4176 -4.77403 -6.29984
upperneck 14.969 -6.40004 6.60081
head 7.38826 -2.86685 2.49563
rclavicle -4.39811e-015 -2.54444e-014
rhumerus -60.6938 -33.2818 -40.8508
rradius 12.9132
rwrist 45.9434
rhand 6.14726 -27.9203
rfingers 7.12502
rthumb 31.4636 -55.2324
lclavicle -4.39811e-015 -2.54444e-014
lhumerus -67.8719 32.3799 47.2849
lradius 14.9491
lwrist -60.6535
lhand 16.7563 16.2068
lfingers 7.12502
lthumb 41.5022 40.9615
rfemur -7.68664 -0.162289 21.9148
rtibia 51.5624
rfoot 12.1504 -7.56361
rtoes 0.577881
lfemur -22.9561 -1.31897 -16.0403
ltibia 24.2605
lfoot -5.52846 4.84094
ltoes -0.558383
394
root -21.7781 17.8145 3.34122 513.346 -84.4046 -506.581
lowerback -0.958495 0.38203 2.8965
upperback -1.33883 0.467108 2.59291
thorax -0.832894 0.19998 1.03565
lowerneck -14.4126 -4.74506 -6.33578
upperneck 14.7204 -6.31946 6.53236
head 7.2997 -2.83613 2.48857
rclavicle -1.2424e-015 2.78299e-014
rhumerus -61.681 -32.0941 -41.2312
rradius 13.1706
rwrist 44.5414
rhand 6.67139 -27.9588
rfingers 7.12502
rthumb 31.9628 -55.1722
lclavicle -1.2424e-015 2.78299e-014
lhumerus -68.8913 31.5812 47.4583
lradius 15.3194
lwrist -58.3094
lhand 17.3951 16.4408
lfingers 7.12502
lthumb 42.1011 40.9969
rfemur -8.98843 -0.463055 21.2007
rtibia 53.7604
rfoot 13.6595 -8.49682
rtoes 2.33747
lfemur -22.0876 -1.41022 -16.8832
ltibia 24.0225
lfoot -6.02302 4.88253
ltoes -0.707435
395
root -21.9375 17.8252 3.35849 517.11 -84.6425 -510.467
lowerback -0.866909 0.317979 2.49887
upperback -1.20237 0.387617 2.50031
thorax -0.746275 0.166973 1.16244
lowerneck -14.4049 -4.70227 -6.35902
upperneck 14.4781 -6.21997 6.44132
head 7.21045 -2.79752 2.47424
rclavicle -1.35671e-014 2.66371e-014
rhumerus -62.5784 -30.986 -41.6355
rradius 13.3942
rwrist 43.1262
rhand 7.00554 -27.81
rfingers 7.12502
rthumb 32.281 -54.9592
lclavicle -1.35671e-014 2.66371e-014
lhumerus -70.0183 31.0106 47.2534
lradius 15.6152
lwrist -56.2475
lhand 17.5958 16.5195
lfingers 7.12502
lthumb 42.2892 41.0119
rfemur -10.2714 -0.830828 20.6331
rtibia 55.8816
rfoot 14.3971 -9.6161
rtoes 3.40366
lfemur -21.1978 -1.52389 -17.5974
ltibia 23.7482
lfoot -6.49145 4.90359
ltoes -0.827325
396
root -22.0947 17.8379 3.37415 519.701 -84.8521 -513.175
lowerback -0.785182 0.238729 2.22298
upperback -1.05998 0.285128 2.44913
thorax -0.646885 0.12039 1.26385
lowerneck -14.3958 -4.64913 -6.37011
upperneck 14.2423 -6.10715 6.33226
head 7.12145 -2.75324 2.45356
rclavicle -2.18663e-015 1.74931e-014
rhumerus -63.4334 -30.0019 -41.9699
rradius 13.5824
rwrist 41.7458
rhand 7.18894 -27.4412
rfingers 7.12502
rthumb 32.4555 -54.5547
lclavicle -2.18663e-015 1.74931e-014
lhumerus -71.199 30.6322 46.7235
lradius 15.8307
lwrist -54.4073
lhand 17.4731 16.5169
lfingers 7.12502
lthumb 42.1743 41.0483
rfemur -11.5523 -1.25665 20.2445
rtibia 57.9094
rfoot 14.4311 -10.8672
rtoes 4.16679
lfemur -20.3065 -1.64313 -18.1499
ltibia 23.4483
lfoot -6.9329 4.892
ltoes -0.932863
397
root -22.2492 17.853 3.38813 520.763 -85.042 -514.364
lowerback -0.689395 0.141283 2.08259
upperback -0.910183 0.156622 2.44468
thorax -0.546661 0.0588573 1.3374
lowerneck -14.3959 -4.58819 -6.37237
upperneck 14.0154 -5.98465 6.21263
head 7.03593 -2.70435 2.42889
rclavicle 7.50412e-015 -2.38542e-015
rhumerus -64.2766 -29.1813 -42.143
rradius 13.7318
rwrist 40.4655
rhand 7.24623 -26.9022
rfingers 7.12502
rthumb 32.51 -54.0045
lclavicle 7.50412e-015 -2.38542e-015
lhumerus -72.4582 30.4463 45.8069
lradius 15.9459
lwrist -52.9355
lhand 17.0933 16.3578
lfingers 7.12502
lthumb 41.8183 41.0084
rfemur -12.8034 -1.74192 20.0486
rtibia 59.7957
rfoot 13.8801 -12.1742
rtoes 4.84374
lfemur -19.3917 -1.76363 -18.5182
ltibia 23.1122
lfoot -7.34364 4.84335
ltoes -1.00989
398
root -22.401 17.8697 3.40094 520.294 -85.2093 -514.026
lowerback -0.590324 0.0337883 2.07138
upperback -0.755784 0.0127268 2.48172
thorax -0.442859 -0.0118987 1.38123
lowerneck -14.4076 -4.52315 -6.37269
upperneck 13.8068 -5.85712 6.08575
head 6.95803 -2.65312 2.40188
rclavicle -5.26779e-015 0
rhumerus -65.0997 -28.5007 -42.1784
rradius 13.8617
rwrist 39.2335
rhand 7.26888 -26.2926
rfingers 7.12502
rthumb 32.5316 -53.3904
lclavicle -5.26779e-015 0
lhumerus -73.7653 30.4167 44.5483
lradius 15.9603
lwrist -51.783
lhand 16.5445 16.1162
lfingers 7.12502
lthumb 41.3034 40.9354
rfemur -14.036 -2.2626 20.028
rtibia 61.5169
rfoot 12.9827 -13.4565
rtoes 5.75855
lfemur -18.468 -1.87982 -18.716
ltibia 22.7535
lfoot -7.72859 4.77365
ltoes -1.08713
